<svg width="72" height="72" viewBox="0 0 72 72" fill="none" xmlns="http://www.w3.org/2000/svg">
<path d="M18 36C18 24.9543 26.9543 16 38 16V16C49.0457 16 58 24.9543 58 36V36C58 47.0457 49.0457 56 38 56V56C26.9543 56 18 47.0457 18 36V36Z" fill="black"/>
<g opacity="0.1" filter="url(#filter0_d)">
<path fill-rule="evenodd" clip-rule="evenodd" d="M38 16C49.0457 16 58 24.9543 58 36C58 47.0457 49.0457 56 38 56C26.9543 56 18 47.0457 18 36C18 24.9543 26.9543 16 38 16Z" fill="white"/>
</g>
<path opacity="0.4" fill-rule="evenodd" clip-rule="evenodd" d="M44 36.9999H39V42.0002C39 42.5521 38.5523 43 38 43C37.4478 43 37 42.5521 37 42.0002V36.9999H32.0001C31.4477 36.9999 31 36.5523 31 36C31 35.4479 31.4477 35.0001 32.0001 35.0001H37V29.9999C37 29.4477 37.4478 29 38 29C38.5523 29 39 29.4477 39 29.9999V35.0001H44C44.5523 35.0001 45 35.4479 45 36C45 36.5523 44.5523 36.9999 44 36.9999Z" fill="white"/>
<defs>
<filter id="filter0_d" x="0" y="0" width="72" height="72" filterUnits="userSpaceOnUse" color-interpolation-filters="sRGB">
<feFlood flood-opacity="0" result="BackgroundImageFix"/>
<feColorMatrix in="SourceAlpha" type="matrix" values="0 0 0 0 0 0 0 0 0 0 0 0 0 0 0 0 0 0 127 0"/>
<feOffset dx="-2"/>
<feGaussianBlur stdDeviation="8"/>
<feColorMatrix type="matrix" values="0 0 0 0 0 0 0 0 0 0 0 0 0 0 0 0 0 0 0.16 0"/>
<feBlend mode="normal" in2="BackgroundImageFix" result="effect1_dropShadow"/>
<feBlend mode="normal" in="SourceGraphic" in2="effect1_dropShadow" result="shape"/>
</filter>
</defs>
</svg>
